{
    "asset" : {
        "generator" : "Khronos glTF Blender I/O v1.7.33",
        "version" : "2.0"
    },
    "scene" : 0,
    "scenes" : [
        {
            "name" : "Scene",
            "nodes" : [
                0
            ]
        }
    ],
    "nodes" : [
        {
            "mesh" : 0,
            "name" : "Assem2",
            "rotation" : [
                0.9459307193756104,
                0.03157830610871315,
                -0.322658509016037,
                -0.010458102449774742
            ],
            "translation" : [
                -61.84923553466797,
                209.54598999023438,
                -42.97340393066406
            ]
        }
    ],
    "materials" : [
        {
            "doubleSided" : true,
            "name" : "Material.001",
            "pbrMetallicRoughness" : {
                "baseColorFactor" : [
                    0.800000011920929,
                    0.800000011920929,
                    0.800000011920929,
                    1
                ],
                "metallicFactor" : 0,
                "roughnessFactor" : 0.5
            }
        }
    ],
    "meshes" : [
        {
            "name" : "Assem2",
            "primitives" : [
                {
                    "attributes" : {
                        "POSITION" : 0,
                        "NORMAL" : 1
                    },
                    "indices" : 2,
                    "material" : 0
                }
            ]
        }
    ],
    "accessors" : [
        {
            "bufferView" : 0,
            "componentType" : 5126,
            "count" : 61379,
            "max" : [
                278.3446960449219,
                50.451698303222656,
                -1.3605401515960693
            ],
            "min" : [
                4.623144626617432,
                0.8516975045204163,
                -295.84820556640625
            ],
            "type" : "VEC3"
        },
        {
            "bufferView" : 1,
            "componentType" : 5126,
            "count" : 61379,
            "type" : "VEC3"
        },
        {
            "bufferView" : 2,
            "componentType" : 5123,
            "count" : 374874,
            "type" : "SCALAR"
        }
    ],
    "bufferViews" : [
        {
            "buffer" : 0,
            "byteLength" : 736548,
            "byteOffset" : 0
        },
        {
            "buffer" : 0,
            "byteLength" : 736548,
            "byteOffset" : 736548
        },
        {
            "buffer" : 0,
            "byteLength" : 749748,
            "byteOffset" : 1473096
        }
    ],
    "buffers" : [
        {
            "byteLength" : 2222844,
            "uri" : "data:application/octet-stream;base64,"
        }
    ]
}
